<svg width="24" height="24" viewBox="0 0 24 24" fill="none" xmlns="http://www.w3.org/2000/svg">
<path d="M0 4H24V20H0V4ZM12 8C13.0609 8 14.0783 8.42143 14.8284 9.17157C15.5786 9.92172 16 10.9391 16 12C16 13.0609 15.5786 14.0783 14.8284 14.8284C14.0783 15.5786 13.0609 16 12 16C10.9391 16 9.92172 15.5786 9.17157 14.8284C8.42143 14.0783 8 13.0609 8 12C8 10.9391 8.42143 9.92172 9.17157 9.17157C9.92172 8.42143 10.9391 8 12 8ZM5.33333 6.66667C5.33333 7.37391 5.05238 8.05219 4.55229 8.55228C4.05219 9.05238 3.37391 9.33333 2.66667 9.33333V14.6667C3.37391 14.6667 4.05219 14.9476 4.55229 15.4477C5.05238 15.9478 5.33333 16.6261 5.33333 17.3333H18.6667C18.6667 16.6261 18.9476 15.9478 19.4477 15.4477C19.9478 14.9476 20.6261 14.6667 21.3333 14.6667V9.33333C20.6261 9.33333 19.9478 9.05238 19.4477 8.55228C18.9476 8.05219 18.6667 7.37391 18.6667 6.66667H5.33333Z" fill="black"/>
</svg>
