<svg width="24" height="24" viewBox="0 0 24 24" fill="none" xmlns="http://www.w3.org/2000/svg">
<path d="M22 5C22 5.79565 21.6839 6.55871 21.1213 7.12132C20.5587 7.68393 19.7956 8 19 8C18.2044 8 17.4413 7.68393 16.8787 7.12132C16.3161 6.55871 16 5.79565 16 5C16 4.20435 16.3161 3.44129 16.8787 2.87868C17.4413 2.31607 18.2044 2 19 2C19.7956 2 20.5587 2.31607 21.1213 2.87868C21.6839 3.44129 22 4.20435 22 5Z" fill="#22E493"/>
<path fill-rule="evenodd" clip-rule="evenodd" d="M15.612 2.038C14.59 2 13.399 2 12 2C7.286 2 4.929 2 3.464 3.464C2 4.93 2 7.286 2 12C2 16.714 2 19.071 3.464 20.535C4.93 22 7.286 22 12 22C16.714 22 19.071 22 20.535 20.535C22 19.072 22 16.714 22 12C22 10.601 22 9.41 21.962 8.388C21.1029 9.14022 19.9899 9.5377 18.8486 9.49988C17.7073 9.46206 16.6231 8.99178 15.8157 8.18433C15.0082 7.37688 14.5379 6.29266 14.5001 5.15138C14.4623 4.01011 14.8598 2.89713 15.612 2.038ZM17.48 9.424C17.6327 9.55134 17.7286 9.73411 17.7466 9.93213C17.7646 10.1301 17.7032 10.3272 17.576 10.48L15.747 12.675C15.419 13.069 15.123 13.425 14.847 13.675C14.545 13.945 14.167 14.188 13.667 14.188C13.167 14.188 12.788 13.946 12.487 13.674C12.211 13.424 11.915 13.069 11.586 12.674L11.294 12.324C10.923 11.879 10.695 11.608 10.507 11.439C10.4581 11.3916 10.4033 11.3506 10.344 11.317L10.334 11.312L10.329 11.314L10.322 11.317C10.2627 11.3506 10.2079 11.3916 10.159 11.439C9.972 11.609 9.744 11.879 9.373 12.324L7.576 14.48C7.44708 14.6274 7.26565 14.7185 7.07046 14.7339C6.87527 14.7492 6.6818 14.6877 6.53138 14.5623C6.38097 14.437 6.28554 14.2578 6.26547 14.063C6.24541 13.8683 6.3023 13.6734 6.424 13.52L8.253 11.325C8.581 10.931 8.877 10.575 9.153 10.325C9.455 10.055 9.833 9.812 10.333 9.812C10.833 9.812 11.212 10.054 11.513 10.326C11.789 10.576 12.085 10.931 12.414 11.326L12.706 11.676C13.077 12.121 13.305 12.392 13.493 12.561C13.579 12.639 13.631 12.671 13.656 12.683L13.659 12.684L13.667 12.688L13.677 12.683C13.7367 12.6495 13.7918 12.6085 13.841 12.561C14.028 12.391 14.256 12.121 14.627 11.676L16.424 9.52C16.5513 9.36729 16.7341 9.27139 16.9321 9.25338C17.1301 9.23538 17.3272 9.29675 17.48 9.424Z" fill="#22E493"/>
</svg>
