<svg width="24" height="24" viewBox="0 0 24 24" fill="none" xmlns="http://www.w3.org/2000/svg">
<path d="M16.7246 5.38565C16.9246 5.76565 16.8646 6.22898 16.5912 6.55898L15.8446 7.46565L15.8146 7.48565C15.4746 6.96565 15.0346 6.65232 15.0346 6.65232L15.0212 6.63565C15.1846 6.51898 15.3312 6.38232 15.4579 6.23232H8.43457C8.54457 6.34232 8.6679 6.44565 8.80123 6.54232L8.79457 6.55232C8.79457 6.55232 8.39457 6.85565 8.07123 7.35232L7.99123 7.30232L7.37457 6.55898C7.10123 6.22898 7.04123 5.76565 7.24123 5.38565C7.6979 4.52565 8.90123 3.14565 11.9846 2.95898C15.0679 3.14565 16.2712 4.52565 16.7246 5.38565Z" fill="#3F3F3F"/>
<path d="M11.2855 7.41909C10.3455 7.30909 9.44888 7.00909 8.80221 6.54242C8.66888 6.44576 8.54555 6.34242 8.43555 6.23242H15.4589C15.3322 6.38242 15.1855 6.51909 15.0222 6.63576C14.6622 6.90909 14.2289 7.11242 13.7489 7.24576C12.9889 7.46242 12.1222 7.51576 11.2855 7.41909Z" fill="#3F3F3F"/>
<path d="M11.0078 6.03906C11.0078 5.4874 11.4561 5.03906 12.0078 5.03906C12.5595 5.03906 13.0078 5.4874 13.0078 6.03906" fill="#D0CFCE"/>
<path d="M5.55829 19.6272C5.55829 19.6272 5.23696 18.3415 5.49996 17.0735C5.73329 15.9468 7.03929 14.6602 8.90262 14.6602C9.96662 15.3698 10.745 16.1935 11.7693 16.1912H11.7276C12.7523 16.1932 13.8303 15.6698 14.8943 14.9605C18.7493 14.9488 18.231 19.5938 18.3076 19.6272" fill="white"/>
<path d="M14.8594 16.6255C16.2814 17.3998 16.32 18.7102 16.4947 19.6268H18.199C18.199 19.6268 18.7524 18.0928 18.235 16.6992C17.8504 15.6632 16.7544 14.6602 15.0324 14.6602" fill="#D0CFCE"/>
<path d="M11.907 16.7344L13.1654 19.6267H10.582L11.907 16.7344Z" fill="#3F3F3F"/>
<path d="M11.1174 16.2539C11.1174 16.2539 10.7154 17.9329 11.8867 17.9329C13.058 17.9329 12.6557 16.2539 12.6557 16.2539" fill="#3F3F3F"/>
<path d="M11.2856 7.41964C8.93559 7.77964 8.15892 9.9863 8.15892 9.9863C7.33892 8.94964 7.64559 7.99297 8.07226 7.35297C8.39559 6.8563 8.79559 6.55297 8.79559 6.55297L8.80226 6.54297C9.44892 7.00964 10.3456 7.30964 11.2856 7.41964ZM15.8156 7.4863C16.2089 8.0963 16.4623 8.98964 15.6723 9.9863C15.6723 9.9863 14.7756 7.33297 13.7489 7.2463C14.2289 7.11297 14.6623 6.90964 15.0223 6.6363L15.0356 6.65297C15.0356 6.65297 15.4756 6.9663 15.8156 7.4863Z" fill="black"/>
<path d="M12.1075 7.48645C12.1075 7.48645 14.6921 6.52645 15.7461 9.58645C15.7461 12.1954 14.0541 14.3108 11.9668 14.3108C9.87946 14.3108 8.18712 12.1954 8.18712 9.58645C10.2478 6.84978 12.1071 7.48645 12.1071 7.48645M5.57812 14.7941H7.89946V16.0774H5.57812V14.7941ZM15.8948 14.7941H18.2161V16.0774H15.8948V14.7941Z" fill="#6A462F"/>
<path d="M14.0067 8.95836C14.0067 9.04593 13.9894 9.13264 13.9559 9.21353C13.9224 9.29443 13.8732 9.36793 13.8113 9.42983C13.7494 9.49174 13.6758 9.54084 13.5949 9.57433C13.514 9.60782 13.4273 9.62505 13.3397 9.62503C13.2522 9.62501 13.1655 9.60774 13.0846 9.5742C13.0037 9.54067 12.9302 9.49154 12.8683 9.4296C12.8064 9.36766 12.7573 9.29414 12.7238 9.21323C12.6903 9.13231 12.673 9.0456 12.6731 8.95803C12.6731 8.78117 12.7434 8.61158 12.8685 8.48655C12.9936 8.36153 13.1632 8.29132 13.3401 8.29136C13.5169 8.2914 13.6865 8.3617 13.8115 8.48679C13.9366 8.61188 14.0068 8.78151 14.0067 8.95836ZM11.3401 8.95836C11.34 9.04593 11.3228 9.13264 11.2892 9.21353C11.2557 9.29443 11.2066 9.36793 11.1446 9.42983C11.0827 9.49174 11.0092 9.54084 10.9283 9.57433C10.8474 9.60782 10.7606 9.62505 10.6731 9.62503C10.5855 9.62501 10.4988 9.60774 10.4179 9.5742C10.337 9.54067 10.2635 9.49154 10.2016 9.4296C10.1397 9.36766 10.0906 9.29414 10.0571 9.21323C10.0236 9.13231 10.0064 9.0456 10.0064 8.95803C10.0064 8.78117 10.0767 8.61158 10.2018 8.48655C10.3269 8.36153 10.4965 8.29132 10.6734 8.29136C10.8503 8.2914 11.0198 8.3617 11.1449 8.48679C11.2699 8.61188 11.3401 8.78151 11.3401 8.95836ZM12.0067 12.2927C11.6227 12.2927 11.2387 12.1974 10.8577 12.0067C10.8186 11.9871 10.7836 11.96 10.7549 11.9269C10.7262 11.8938 10.7043 11.8554 10.6905 11.8138C10.6766 11.7723 10.6711 11.7284 10.6742 11.6847C10.6773 11.641 10.689 11.5984 10.7086 11.5592C10.7282 11.52 10.7553 11.4851 10.7884 11.4564C10.8214 11.4277 10.8599 11.4058 10.9014 11.3919C10.943 11.3781 10.9869 11.3725 11.0305 11.3757C11.0742 11.3788 11.1169 11.3904 11.1561 11.41C11.7284 11.6967 12.2851 11.6967 12.8577 11.41C12.9369 11.3705 13.0285 11.364 13.1124 11.3919C13.1963 11.4199 13.2657 11.4801 13.3052 11.5592C13.3448 11.6383 13.3513 11.7299 13.3233 11.8138C13.2954 11.8978 13.2352 11.9671 13.1561 12.0067C12.7743 12.1974 12.3912 12.2927 12.0067 12.2927ZM15.8664 7.83869C15.8032 7.83864 15.7413 7.82061 15.6879 7.78671C15.6346 7.75281 15.592 7.70444 15.5651 7.64724C15.5381 7.59004 15.5281 7.52636 15.536 7.46365C15.5439 7.40093 15.5695 7.34176 15.6097 7.29303L16.3591 6.38636C16.5514 6.15303 16.5887 5.83736 16.4534 5.58169C16.0517 4.82003 14.9404 3.51669 12.0067 3.33169C9.0734 3.51669 7.96173 4.82003 7.56006 5.58169C7.42473 5.83736 7.46206 6.15303 7.65473 6.38636L8.26973 7.13103C8.29953 7.16448 8.32227 7.20359 8.33661 7.24604C8.35095 7.28848 8.35659 7.33337 8.35319 7.37804C8.34979 7.42271 8.33742 7.46623 8.31681 7.50601C8.29621 7.54579 8.26781 7.58101 8.23329 7.60957C8.19877 7.63812 8.15885 7.65943 8.11592 7.67221C8.07298 7.68499 8.02791 7.68899 7.9834 7.68396C7.93888 7.67893 7.89584 7.66498 7.85684 7.64294C7.81783 7.6209 7.78367 7.59123 7.7564 7.55569L7.14106 6.81103C6.77606 6.36969 6.7094 5.76503 6.97006 5.27036C7.4384 4.38336 8.71273 2.86536 11.9864 2.66469C12.0001 2.66385 12.0137 2.66385 12.0274 2.66469C15.3017 2.86536 16.5754 4.38336 17.0434 5.27069C17.3044 5.76503 17.2374 6.36969 16.8727 6.81103L16.1234 7.71769C16.0921 7.75555 16.0529 7.78602 16.0084 7.80694C15.964 7.82786 15.9155 7.8387 15.8664 7.83869Z" fill="black"/>
<path d="M11.9804 14.4698C9.84143 14.4698 8.08043 12.4978 7.88477 9.88311L8.54977 9.83344C8.71643 12.0594 10.2231 13.8034 11.9804 13.8034C13.7328 13.8034 15.2044 12.1318 15.4038 9.91544C15.4188 9.75211 15.4261 9.58311 15.4261 9.41211H16.0928C16.0928 9.60311 16.0844 9.79278 16.0678 9.97544C15.8374 12.5374 14.0801 14.4698 11.9804 14.4698Z" fill="black"/>
<path d="M8.18423 10.3591C8.13393 10.359 8.0843 10.3476 8.03904 10.3257C7.99378 10.3038 7.95408 10.2719 7.92289 10.2324C7.43289 9.61341 7.23389 8.97474 7.33023 8.33408C7.49089 7.26708 8.42589 6.61174 8.46589 6.58408C8.53864 6.53564 8.62751 6.51771 8.71335 6.53416C8.7992 6.5506 8.87514 6.60011 8.92484 6.67201C8.97454 6.74391 8.994 6.83245 8.97905 6.91856C8.9641 7.00468 8.91592 7.08147 8.84489 7.13241C8.83756 7.13774 8.10389 7.65841 7.98889 8.43774C7.94556 8.73274 7.99656 9.03441 8.14156 9.33874C8.55756 8.60474 9.49689 7.40841 11.2846 7.15708C11.328 7.1505 11.3722 7.15264 11.4148 7.16338C11.4573 7.17412 11.4973 7.19324 11.5324 7.21963C11.5675 7.24601 11.5969 7.27913 11.6191 7.31704C11.6412 7.35495 11.6555 7.39689 11.6612 7.44041C11.6673 7.48377 11.6649 7.52791 11.6539 7.57031C11.643 7.61271 11.6238 7.65254 11.5974 7.68752C11.5711 7.7225 11.5381 7.75194 11.5004 7.77417C11.4627 7.7964 11.4209 7.81098 11.3776 7.81708C9.21523 8.12108 8.50656 10.1137 8.49923 10.1341C8.47667 10.1997 8.4342 10.2567 8.37773 10.297C8.32127 10.3373 8.25362 10.359 8.18423 10.3591ZM15.6976 10.3591C15.628 10.3588 15.5603 10.3368 15.5038 10.2962C15.4473 10.2557 15.4048 10.1985 15.3822 10.1327C15.0476 9.14608 14.2956 7.66508 13.7446 7.61908C13.7009 7.61546 13.6584 7.60328 13.6195 7.58323C13.5805 7.56318 13.5459 7.53565 13.5176 7.50222C13.4893 7.46878 13.4679 7.4301 13.4546 7.38838C13.4412 7.34666 13.4362 7.30272 13.4399 7.25908C13.4431 7.2153 13.455 7.1726 13.475 7.13348C13.4949 7.09437 13.5224 7.05962 13.556 7.03128C13.5895 7.00294 13.6283 6.98157 13.6702 6.96843C13.7121 6.95529 13.7562 6.95064 13.7999 6.95474C14.6912 7.02874 15.4026 8.39808 15.7692 9.27574C15.8921 8.99197 15.9334 8.71274 15.8932 8.43808C15.7782 7.65808 15.0446 7.13808 15.0372 7.13274C14.9662 7.08181 14.918 7.00501 14.9031 6.9189C14.8881 6.83278 14.9076 6.74424 14.9573 6.67234C15.007 6.60044 15.0829 6.55094 15.1688 6.53449C15.2546 6.51804 15.3435 6.53597 15.4162 6.58441C15.4562 6.61174 16.3912 7.26708 16.5516 8.33441C16.6482 8.97474 16.4489 9.61341 15.9592 10.2324C15.928 10.2719 15.8883 10.3038 15.8431 10.3257C15.7978 10.3476 15.7479 10.359 15.6976 10.3591ZM13.0086 6.37174C12.9202 6.37174 12.8354 6.33663 12.7729 6.27411C12.7103 6.2116 12.6752 6.12682 12.6752 6.03841C12.6752 5.67074 12.3762 5.37174 12.0086 5.37174C11.6409 5.37174 11.3419 5.67074 11.3419 6.03841C11.3419 6.12682 11.3068 6.2116 11.2443 6.27411C11.1817 6.33663 11.097 6.37174 11.0086 6.37174C10.9202 6.37174 10.8354 6.33663 10.7729 6.27411C10.7103 6.2116 10.6752 6.12682 10.6752 6.03841C10.6752 5.30341 11.2732 4.70508 12.0086 4.70508C12.7439 4.70508 13.3419 5.30341 13.3419 6.03841C13.3419 6.12682 13.3068 6.2116 13.2443 6.27411C13.1817 6.33663 13.097 6.37174 13.0086 6.37174ZM11.8866 18.2654C11.4166 18.2654 11.1479 18.0501 11.0059 17.8697C10.5449 17.2854 10.7669 16.2874 10.7936 16.1754C10.8151 16.0905 10.8692 16.0175 10.9442 15.9721C11.0191 15.9268 11.109 15.9128 11.1942 15.9332C11.2794 15.9535 11.3532 16.0066 11.3995 16.081C11.4459 16.1553 11.4611 16.2449 11.4419 16.3304C11.3942 16.5337 11.3072 17.1771 11.5296 17.4577C11.5776 17.5184 11.6666 17.5987 11.8866 17.5987C12.1069 17.5987 12.1962 17.5181 12.2446 17.4571C12.4512 17.1947 12.3926 16.5851 12.3316 16.3307C12.3214 16.2882 12.3197 16.244 12.3266 16.2007C12.3335 16.1575 12.3488 16.116 12.3718 16.0787C12.3947 16.0414 12.4247 16.009 12.4602 15.9833C12.4956 15.9576 12.5358 15.9391 12.5784 15.9289C12.621 15.9187 12.6652 15.917 12.7084 15.9239C12.7517 15.9308 12.7931 15.9462 12.8304 15.9691C12.8677 15.992 12.9002 16.0221 12.9259 16.0575C12.9516 16.093 12.97 16.1332 12.9802 16.1757C13.0069 16.2874 13.2286 17.2857 12.7679 17.8697C12.6252 18.0501 12.3569 18.2654 11.8866 18.2654ZM18.2466 19.6451C18.1985 19.6451 18.151 19.6348 18.1074 19.6148C18.0637 19.5948 18.0248 19.5656 17.9935 19.5292C17.9622 19.4928 17.9391 19.4501 17.9258 19.4039C17.9125 19.3577 17.9094 19.3092 17.9166 19.2617C17.9182 19.2494 18.0952 18.0311 17.6592 16.9574C17.642 16.9167 17.633 16.873 17.6329 16.8288C17.6327 16.7846 17.6413 16.7408 17.6582 16.7C17.6751 16.6592 17.7 16.6221 17.7313 16.591C17.7627 16.5598 17.7999 16.5352 17.8408 16.5186C17.8818 16.502 17.9256 16.4937 17.9698 16.4942C18.014 16.4946 18.0577 16.5039 18.0982 16.5214C18.1388 16.5389 18.1755 16.5643 18.2062 16.5961C18.2368 16.628 18.2609 16.6656 18.2769 16.7067C18.7836 17.9544 18.5842 19.3057 18.5756 19.3627C18.5633 19.4412 18.5235 19.5128 18.4631 19.5645C18.4028 19.6162 18.326 19.645 18.2466 19.6451Z" fill="black"/>
<path d="M10.0269 18.2429C10.0174 18.2432 10.0077 18.2427 9.99791 18.2416C9.93805 18.2363 9.88074 18.2149 9.83203 18.1797C9.78333 18.1445 9.74505 18.0968 9.72125 18.0416L8.46291 15.1259C8.44195 15.0774 8.43283 15.0246 8.43629 14.9719C8.43975 14.9192 8.4557 14.868 8.48282 14.8227C8.50994 14.7773 8.54746 14.739 8.59228 14.711C8.63709 14.683 8.68793 14.6661 8.74058 14.6616L8.92458 14.6459C8.99987 14.6389 9.07527 14.6582 9.13791 14.7006C10.1889 15.4016 11.0246 15.8379 11.9322 15.8419C12.8389 15.8379 13.6746 15.4016 14.7266 14.7006C14.7879 14.6599 14.8599 14.6419 14.9346 14.6453L15.1602 14.6609C15.2142 14.6647 15.2664 14.6815 15.3124 14.71C15.3584 14.7384 15.3968 14.7776 15.4243 14.8242C15.4517 14.8708 15.4674 14.9234 15.4701 14.9774C15.4727 15.0314 15.4621 15.0853 15.4392 15.1343L14.0809 18.0503C14.0552 18.105 14.0152 18.1518 13.965 18.1855C13.9148 18.2192 13.8564 18.2387 13.796 18.2418C13.7356 18.2449 13.6755 18.2316 13.6221 18.2032C13.5688 18.1748 13.5241 18.1324 13.4929 18.0806L12.5236 16.4576C12.3412 16.4886 12.1569 16.5056 11.9676 16.5083C11.9629 16.5092 11.958 16.5093 11.9529 16.5086H11.9112C11.9059 16.5096 11.9016 16.5086 11.8966 16.5086C11.7224 16.5061 11.5486 16.4912 11.3766 16.4639L10.3056 18.0929C10.2432 18.1869 10.1386 18.2429 10.0269 18.2429ZM9.42525 15.6736L10.0882 17.2103L10.6932 16.2903C10.2792 16.1469 9.86458 15.9369 9.42525 15.6736ZM13.1949 16.2816L13.7426 17.1983L14.4582 15.6623C14.0202 15.9259 13.6069 16.1363 13.1949 16.2816ZM5.61891 19.6446C5.53947 19.6444 5.46271 19.6159 5.40245 19.5641C5.34219 19.5124 5.3024 19.4408 5.29025 19.3623C5.28158 19.3056 5.08458 17.9739 5.57725 16.7336C5.61168 16.654 5.67576 16.591 5.75589 16.5578C5.83603 16.5246 5.92592 16.524 6.00653 16.556C6.08715 16.5879 6.15214 16.6501 6.18774 16.7291C6.22333 16.8082 6.22675 16.8981 6.19725 16.9796C5.77258 18.0473 5.94725 19.2493 5.94925 19.2613C5.95645 19.3088 5.95331 19.3573 5.94003 19.4034C5.92675 19.4496 5.90364 19.4923 5.8723 19.5287C5.84096 19.5652 5.80212 19.5944 5.75845 19.6144C5.71477 19.6344 5.66695 19.6447 5.61891 19.6446Z" fill="black"/>
<path d="M10.6264 19.6321C10.5672 19.6322 10.5091 19.6165 10.458 19.5867C10.4069 19.5569 10.3647 19.5139 10.3357 19.4623C10.3068 19.4107 10.2921 19.3524 10.2932 19.2932C10.2943 19.234 10.3112 19.1763 10.3421 19.1258L11.0884 17.8958C11.111 17.8583 11.1408 17.8256 11.1761 17.7997C11.2114 17.7738 11.2515 17.7551 11.294 17.7447C11.3365 17.7343 11.3807 17.7325 11.424 17.7392C11.4672 17.746 11.5087 17.7613 11.5461 17.7841C11.6216 17.83 11.6758 17.904 11.6968 17.9898C11.7178 18.0756 11.7039 18.1662 11.6581 18.2418L10.9114 19.4718C10.8816 19.5207 10.8398 19.5611 10.7899 19.5891C10.7399 19.6171 10.6836 19.6322 10.6264 19.6321ZM13.1464 19.6321C13.089 19.6322 13.0326 19.6174 12.9826 19.5892C12.9327 19.5611 12.8908 19.5205 12.8611 19.4715L12.1144 18.2415C12.0687 18.1659 12.0549 18.0753 12.076 17.9896C12.097 17.9038 12.1513 17.8299 12.2267 17.7841C12.3023 17.7383 12.3929 17.7244 12.4787 17.7454C12.5646 17.7664 12.6385 17.8206 12.6844 17.8961L13.4307 19.1258C13.4616 19.1763 13.4785 19.234 13.4796 19.2932C13.4807 19.3524 13.466 19.4107 13.4371 19.4623C13.4081 19.5139 13.3659 19.5569 13.3148 19.5867C13.2637 19.6165 13.2056 19.6322 13.1464 19.6321ZM7.9004 16.0915C7.812 16.0915 7.72721 16.0563 7.6647 15.9938C7.60219 15.9313 7.56707 15.8465 7.56707 15.7581V15.1071C7.56707 15.0187 7.60219 14.9339 7.6647 14.8714C7.72721 14.8089 7.812 14.7738 7.9004 14.7738C7.98881 14.7738 8.07359 14.8089 8.1361 14.8714C8.19862 14.9339 8.23373 15.0187 8.23373 15.1071V15.7581C8.23373 15.8465 8.19862 15.9313 8.1361 15.9938C8.07359 16.0563 7.98881 16.0915 7.9004 16.0915ZM6.7684 16.0915C6.68 16.0915 6.59521 16.0563 6.5327 15.9938C6.47019 15.9313 6.43507 15.8465 6.43507 15.7581V15.1071C6.43507 15.0187 6.47019 14.9339 6.5327 14.8714C6.59521 14.8089 6.68 14.7738 6.7684 14.7738C6.85681 14.7738 6.94159 14.8089 7.0041 14.8714C7.06662 14.9339 7.10173 15.0187 7.10173 15.1071V15.7581C7.10173 15.8465 7.06662 15.9313 7.0041 15.9938C6.94159 16.0563 6.85681 16.0915 6.7684 16.0915ZM5.63607 16.0915C5.54766 16.0915 5.46288 16.0563 5.40037 15.9938C5.33785 15.9313 5.30273 15.8465 5.30273 15.7581V15.1071C5.30273 15.0187 5.33785 14.9339 5.40037 14.8714C5.46288 14.8089 5.54766 14.7738 5.63607 14.7738C5.72447 14.7738 5.80926 14.8089 5.87177 14.8714C5.93428 14.9339 5.9694 15.0187 5.9694 15.1071V15.7581C5.9694 15.8465 5.93428 15.9313 5.87177 15.9938C5.80926 16.0563 5.72447 16.0915 5.63607 16.0915ZM15.9244 16.0915C15.836 16.0915 15.7512 16.0563 15.6887 15.9938C15.6262 15.9313 15.5911 15.8465 15.5911 15.7581V15.1071C15.5911 15.0187 15.6262 14.9339 15.6887 14.8714C15.7512 14.8089 15.836 14.7738 15.9244 14.7738C16.0128 14.7738 16.0976 14.8089 16.1601 14.8714C16.2226 14.9339 16.2577 15.0187 16.2577 15.1071V15.7581C16.2577 15.8465 16.2226 15.9313 16.1601 15.9938C16.0976 16.0563 16.0128 16.0915 15.9244 16.0915ZM17.0561 16.0915C16.9677 16.0915 16.8829 16.0563 16.8204 15.9938C16.7579 15.9313 16.7227 15.8465 16.7227 15.7581V15.1071C16.7227 15.0187 16.7579 14.9339 16.8204 14.8714C16.8829 14.8089 16.9677 14.7738 17.0561 14.7738C17.1445 14.7738 17.2293 14.8089 17.2918 14.8714C17.3543 14.9339 17.3894 15.0187 17.3894 15.1071V15.7581C17.3894 15.8465 17.3543 15.9313 17.2918 15.9938C17.2293 16.0563 17.1445 16.0915 17.0561 16.0915ZM18.1881 16.0915C18.0997 16.0915 18.0149 16.0563 17.9524 15.9938C17.8899 15.9313 17.8547 15.8465 17.8547 15.7581V15.1071C17.8547 15.0187 17.8899 14.9339 17.9524 14.8714C18.0149 14.8089 18.0997 14.7738 18.1881 14.7738C18.2765 14.7738 18.3613 14.8089 18.4238 14.8714C18.4863 14.9339 18.5214 15.0187 18.5214 15.1071V15.7581C18.5214 15.8465 18.4863 15.9313 18.4238 15.9938C18.3613 16.0563 18.2765 16.0915 18.1881 16.0915ZM12.1147 7.84012C10.5484 7.84012 9.0454 7.33012 8.22473 6.50845C8.17827 6.46175 8.14668 6.40235 8.13392 6.33772C8.12117 6.27309 8.12783 6.20613 8.15307 6.14529C8.1783 6.08444 8.22099 6.03242 8.27574 5.99579C8.33049 5.95916 8.39486 5.93956 8.46073 5.93945H15.4834C15.547 5.93948 15.6093 5.95771 15.6628 5.99197C15.7164 6.02623 15.7591 6.0751 15.7858 6.13282C15.8125 6.19054 15.8221 6.25469 15.8135 6.3177C15.805 6.38072 15.7785 6.43996 15.7374 6.48845C15.0604 7.28579 13.8447 7.77645 12.4024 7.83412C12.3064 7.83812 12.2105 7.84012 12.1147 7.84012ZM9.5064 6.60612C10.2841 6.99945 11.3174 7.21179 12.3757 7.16812C13.2304 7.13379 13.9844 6.93545 14.5551 6.60612H9.5064Z" fill="black"/>
</svg>
