<svg width="18" height="19" viewBox="0 0 18 19" fill="none" xmlns="http://www.w3.org/2000/svg">
<path d="M16 2.5L12 6.5M12 6.5V3.5M12 6.5H15" stroke="#006AFF" stroke-width="1.5" stroke-linecap="round" stroke-linejoin="round"/>
<path d="M12.5559 12.048L12.1009 12.528C12.1009 12.528 11.0179 13.667 8.06286 10.556C5.10786 7.44505 6.19086 6.30605 6.19086 6.30605L6.47786 6.00305C7.18386 5.25905 7.25086 4.06505 6.63386 3.19305L5.37386 1.41005C4.60986 0.330049 3.13486 0.188048 2.25986 1.10905L0.690856 2.76005C0.257856 3.21705 -0.032144 3.80805 0.002856 4.46505C0.092856 6.14505 0.810856 9.75805 4.81486 13.975C9.06186 18.445 13.0469 18.623 14.6759 18.462C15.1919 18.412 15.6399 18.133 16.0009 17.753L17.4209 16.257C18.3809 15.247 18.1109 13.517 16.8829 12.811L14.9729 11.711C14.1669 11.248 13.1859 11.384 12.5559 12.047" fill="#006AFF"/>
</svg>
