<svg width="66" height="67" viewBox="0 0 66 67" fill="none" xmlns="http://www.w3.org/2000/svg">
<path fill-rule="evenodd" clip-rule="evenodd" d="M58.1528 11.3672H7.84713C7.13183 11.3672 6.5484 11.9506 6.5484 12.6659V45.0531C6.5484 45.7684 7.13183 46.3518 7.84713 46.3518H58.1529C58.8682 46.3518 59.4517 45.7684 59.4517 45.0531V12.6659C59.4515 11.9506 58.8681 11.3672 58.1528 11.3672Z" fill="#65788E"/>
<path fill-rule="evenodd" clip-rule="evenodd" d="M49.7861 16.8203H53.4804C53.9089 16.8203 54.2594 17.1708 54.2594 17.5993V21.2936C54.2594 21.7221 53.9088 22.0727 53.4804 22.0727H49.7861C49.3576 22.0727 49.0071 21.7221 49.0071 21.2936V17.5993C49.0071 17.1708 49.3576 16.8203 49.7861 16.8203ZM49.7861 37.1862H53.4804C53.9089 37.1862 54.2594 37.5367 54.2594 37.9652V41.6595C54.2594 42.088 53.9088 42.4385 53.4804 42.4385H49.7861C49.3576 42.4385 49.0071 42.0879 49.0071 41.6595V37.9652C49.0071 37.5367 49.3576 37.1862 49.7861 37.1862ZM49.7861 30.3975H53.4804C53.9089 30.3975 54.2594 30.748 54.2594 31.1765V34.8708C54.2594 35.2993 53.9088 35.6498 53.4804 35.6498H49.7861C49.3576 35.6498 49.0071 35.2992 49.0071 34.8708V31.1765C49.0071 30.7481 49.3576 30.3975 49.7861 30.3975ZM49.7861 23.6089H53.4804C53.9089 23.6089 54.2594 23.9594 54.2594 24.3879V28.0821C54.2594 28.5106 53.9088 28.8612 53.4804 28.8612H49.7861C49.3576 28.8612 49.0071 28.5106 49.0071 28.0821V24.3879C49.0071 23.9594 49.3576 23.6089 49.7861 23.6089Z" fill="#D8ECFE"/>
<path fill-rule="evenodd" clip-rule="evenodd" d="M54.2402 21.4676C54.1615 21.8141 53.85 22.0748 53.4804 22.0748H49.7861C49.3576 22.0748 49.0071 21.7243 49.0071 21.2959V17.6017C49.0071 17.2458 49.2491 16.9436 49.5766 16.8516C49.564 16.9069 49.5574 16.9644 49.5574 17.0233V20.7175C49.5574 21.1459 49.9079 21.4964 50.3364 21.4964H54.0307C54.1033 21.4963 54.1736 21.4863 54.2402 21.4676ZM54.2402 41.8335C54.1615 42.1801 53.85 42.4407 53.4804 42.4407H49.7861C49.3576 42.4407 49.0071 42.0902 49.0071 41.6618V37.9676C49.0071 37.6115 49.2491 37.3095 49.5766 37.2175C49.564 37.2728 49.5574 37.3301 49.5574 37.389V41.0834C49.5574 41.5118 49.9079 41.8623 50.3364 41.8623H54.0307C54.1033 41.8623 54.1736 41.8523 54.2402 41.8335ZM54.2402 35.0449C54.1615 35.3915 53.85 35.6522 53.4804 35.6522H49.7861C49.3576 35.6522 49.0071 35.3017 49.0071 34.8732V31.1788C49.0071 30.8228 49.2491 30.5208 49.5766 30.4286C49.564 30.4839 49.5574 30.5414 49.5574 30.6002V34.2945C49.5574 34.723 49.9079 35.0735 50.3364 35.0735H54.0307C54.1033 35.0736 54.1736 35.0636 54.2402 35.0449ZM54.2402 28.2562C54.1615 28.6027 53.85 28.8634 53.4804 28.8634H49.7861C49.3576 28.8634 49.0071 28.5129 49.0071 28.0845V24.3903C49.0071 24.0342 49.2491 23.7322 49.5766 23.64C49.564 23.6953 49.5574 23.7527 49.5574 23.8117V27.5061C49.5574 27.9345 49.9079 28.285 50.3364 28.285H54.0307C54.1033 28.285 54.1736 28.275 54.2402 28.2562Z" fill="#C4E2FF"/>
<path fill-rule="evenodd" clip-rule="evenodd" d="M12.5195 16.8203H16.2138C16.6423 16.8203 16.9928 17.1708 16.9928 17.5993V21.2936C16.9928 21.7221 16.6421 22.0727 16.2138 22.0727H12.5195C12.091 22.0727 11.7405 21.7221 11.7405 21.2936V17.5993C11.7405 17.1708 12.091 16.8203 12.5195 16.8203ZM12.5195 37.1862H16.2138C16.6423 37.1862 16.9928 37.5367 16.9928 37.9652V41.6595C16.9928 42.088 16.6421 42.4385 16.2138 42.4385H12.5195C12.091 42.4385 11.7405 42.0879 11.7405 41.6595V37.9652C11.7405 37.5367 12.091 37.1862 12.5195 37.1862ZM12.5195 30.3975H16.2138C16.6423 30.3975 16.9928 30.748 16.9928 31.1765V34.8708C16.9928 35.2993 16.6421 35.6498 16.2138 35.6498H12.5195C12.091 35.6498 11.7405 35.2992 11.7405 34.8708V31.1765C11.7405 30.7481 12.091 30.3975 12.5195 30.3975ZM12.5195 23.6089H16.2138C16.6423 23.6089 16.9928 23.9594 16.9928 24.3879V28.0821C16.9928 28.5106 16.6421 28.8612 16.2138 28.8612H12.5195C12.091 28.8612 11.7405 28.5106 11.7405 28.0821V24.3879C11.7405 23.9594 12.091 23.6089 12.5195 23.6089Z" fill="#D8ECFE"/>
<path fill-rule="evenodd" clip-rule="evenodd" d="M16.9736 21.4676C16.8948 21.8141 16.5834 22.0748 16.2138 22.0748H12.5195C12.091 22.0748 11.7405 21.7243 11.7405 21.2959V17.6017C11.7405 17.2458 11.9824 16.9436 12.31 16.8516C12.2974 16.9069 12.2908 16.9644 12.2908 17.0233V20.7175C12.2908 21.1459 12.6413 21.4964 13.0698 21.4964H16.7641C16.8367 21.4963 16.9069 21.4863 16.9736 21.4676ZM16.9736 41.8335C16.8948 42.1801 16.5834 42.4407 16.2138 42.4407H12.5195C12.091 42.4407 11.7405 42.0902 11.7405 41.6618V37.9676C11.7405 37.6115 11.9824 37.3095 12.31 37.2175C12.2974 37.2728 12.2908 37.3301 12.2908 37.389V41.0834C12.2908 41.5118 12.6413 41.8623 13.0698 41.8623H16.7641C16.8367 41.8623 16.9069 41.8523 16.9736 41.8335ZM16.9736 35.0449C16.8948 35.3915 16.5834 35.6522 16.2138 35.6522H12.5195C12.091 35.6522 11.7405 35.3017 11.7405 34.8732V31.1788C11.7405 30.8228 11.9824 30.5208 12.31 30.4286C12.2974 30.4839 12.2908 30.5414 12.2908 30.6002V34.2945C12.2908 34.723 12.6413 35.0735 13.0698 35.0735H16.7641C16.8367 35.0736 16.9069 35.0636 16.9736 35.0449ZM16.9736 28.2562C16.8948 28.6027 16.5834 28.8634 16.2138 28.8634H12.5195C12.091 28.8634 11.7405 28.5129 11.7405 28.0845V24.3903C11.7405 24.0342 11.9824 23.7322 12.31 23.64C12.2974 23.6953 12.2908 23.7527 12.2908 23.8117V27.5061C12.2908 27.9345 12.6413 28.285 13.0698 28.285H16.7641C16.8367 28.285 16.9069 28.275 16.9736 28.2562Z" fill="#C4E2FF"/>
<path fill-rule="evenodd" clip-rule="evenodd" d="M22.185 46.3516H43.8148V3.86123C43.8148 3.14593 43.2314 2.5625 42.5161 2.5625H23.4837C22.7684 2.5625 22.185 3.14593 22.185 3.86123V46.3516Z" fill="#8192A5"/>
<path fill-rule="evenodd" clip-rule="evenodd" d="M27.7584 7.48438H31.4527C31.8812 7.48438 32.2317 7.83487 32.2317 8.26336V11.9577C32.2317 12.3862 31.881 12.7367 31.4527 12.7367H27.7584C27.3299 12.7367 26.9794 12.3862 26.9794 11.9577V8.26336C26.9794 7.83487 27.3299 7.48438 27.7584 7.48438ZM34.5471 7.48438H38.2414C38.6699 7.48438 39.0204 7.83487 39.0204 8.26336V11.9577C39.0204 12.3862 38.6698 12.7367 38.2414 12.7367H34.5471C34.1186 12.7367 33.7681 12.3862 33.7681 11.9577V8.26336C33.7681 7.83487 34.1187 7.48438 34.5471 7.48438ZM34.5471 14.273H38.2414C38.6699 14.273 39.0204 14.6235 39.0204 15.0519V18.7461C39.0204 19.1746 38.6698 19.5253 38.2414 19.5253H34.5471C34.1186 19.5253 33.7681 19.1746 33.7681 18.7461V15.0519C33.7681 14.6235 34.1187 14.273 34.5471 14.273ZM34.5471 21.0617H38.2414C38.6699 21.0617 39.0204 21.4122 39.0204 21.8407V25.5349C39.0204 25.9633 38.6698 26.314 38.2414 26.314H34.5471C34.1186 26.314 33.7681 25.9633 33.7681 25.5349V21.8407C33.7681 21.4122 34.1187 21.0617 34.5471 21.0617ZM27.7584 21.0617H31.4527C31.8812 21.0617 32.2317 21.4122 32.2317 21.8407V25.5349C32.2317 25.9633 31.881 26.314 31.4527 26.314H27.7584C27.3299 26.314 26.9794 25.9633 26.9794 25.5349V21.8407C26.9794 21.4122 27.3299 21.0617 27.7584 21.0617ZM27.7584 14.273H31.4527C31.8812 14.273 32.2317 14.6235 32.2317 15.0519V18.7461C32.2317 19.1746 31.881 19.5253 31.4527 19.5253H27.7584C27.3299 19.5253 26.9794 19.1746 26.9794 18.7461V15.0519C26.9794 14.6235 27.3299 14.273 27.7584 14.273Z" fill="#D8ECFE"/>
<path fill-rule="evenodd" clip-rule="evenodd" d="M39.0013 25.705C38.9226 26.0517 38.6111 26.3124 38.2416 26.3124H34.5473C34.1188 26.3124 33.7683 25.9619 33.7683 25.5335V21.8393C33.7683 21.4832 34.0102 21.1812 34.3378 21.089C34.3251 21.1443 34.3186 21.2017 34.3186 21.2607V24.9551C34.3186 25.3835 34.6691 25.734 35.0976 25.734H38.7919C38.8643 25.7338 38.9346 25.7237 39.0013 25.705ZM39.0013 12.1277C38.9226 12.4744 38.6111 12.7351 38.2416 12.7351H34.5473C34.1188 12.7351 33.7683 12.3846 33.7683 11.9561V8.26182C33.7683 7.90579 34.0102 7.60376 34.3378 7.51172C34.3251 7.56702 34.3186 7.62451 34.3186 7.68342V11.3777C34.3186 11.8062 34.6691 12.1567 35.0976 12.1567H38.7919C38.8643 12.1565 38.9346 12.1464 39.0013 12.1277ZM39.0013 18.9164C38.9226 19.2631 38.6111 19.5237 38.2416 19.5237H34.5473C34.1188 19.5237 33.7683 19.1732 33.7683 18.7447V15.0505C33.7683 14.6945 34.0102 14.3925 34.3378 14.3003C34.3251 14.3556 34.3186 14.413 34.3186 14.472V18.1663C34.3186 18.5948 34.6691 18.9453 35.0976 18.9453H38.7919C38.8643 18.9452 38.9346 18.9351 39.0013 18.9164ZM32.2126 12.1277C32.1339 12.4744 31.8224 12.7351 31.4529 12.7351H27.7585C27.33 12.7351 26.9796 12.3846 26.9796 11.9561V8.26182C26.9796 7.90579 27.2215 7.60376 27.5491 7.51172C27.5364 7.56702 27.5299 7.62451 27.5299 7.68342V11.3777C27.5299 11.8062 27.8803 12.1567 28.3088 12.1567H32.0032C32.0756 12.1565 32.1459 12.1464 32.2126 12.1277ZM32.2126 18.9164C32.1339 19.2631 31.8224 19.5237 31.4529 19.5237H27.7585C27.33 19.5237 26.9796 19.1732 26.9796 18.7447V15.0505C26.9796 14.6945 27.2215 14.3925 27.5491 14.3003C27.5364 14.3556 27.5299 14.413 27.5299 14.472V18.1663C27.5299 18.5948 27.8803 18.9453 28.3088 18.9453H32.0032C32.0756 18.9452 32.1459 18.9351 32.2126 18.9164ZM32.2126 25.705C32.1339 26.0517 31.8224 26.3124 31.4529 26.3124H27.7585C27.33 26.3124 26.9796 25.9619 26.9796 25.5335V21.8393C26.9796 21.4832 27.2215 21.1812 27.5491 21.089C27.5364 21.1443 27.5299 21.2017 27.5299 21.2607V24.9551C27.5299 25.3835 27.8803 25.734 28.3088 25.734H32.0032C32.0756 25.7338 32.1459 25.7237 32.2126 25.705Z" fill="#C4E2FF"/>
<path fill-rule="evenodd" clip-rule="evenodd" d="M39.534 36.3192C39.534 32.7252 36.5935 29.7852 32.9997 29.7852C29.4058 29.7852 26.4656 32.7254 26.4656 36.3192V46.3513C26.8915 46.3513 39.0463 46.3514 39.534 46.3512V36.3192Z" fill="#D8ECFE"/>
<path fill-rule="evenodd" clip-rule="evenodd" d="M33.6444 29.8171C33.4322 29.7961 33.2173 29.7852 32.9998 29.7852C29.4059 29.7852 26.4657 32.7254 26.4657 36.3192V46.3513H27.7548V36.319C27.7548 32.9427 30.35 30.1435 33.6444 29.8171Z" fill="#C4E2FF"/>
<path fill-rule="evenodd" clip-rule="evenodd" d="M41.5485 60.5429L61.718 60.5428C62.146 60.5428 62.5144 60.3623 62.7766 60.0239C63.0388 59.6857 63.1219 59.284 63.0152 58.8696C61.7105 53.8004 57.1095 50.0547 51.6333 50.0547C46.1569 50.0547 41.5559 53.8004 40.2514 58.8696C40.1446 59.2841 40.2278 59.6857 40.49 60.0239C40.7522 60.3623 41.1204 60.5429 41.5485 60.5429Z" fill="#60B7FF"/>
<path fill-rule="evenodd" clip-rule="evenodd" d="M61.7179 60.5428C62.1459 60.5428 62.5143 60.3622 62.7765 60.0239C63.0387 59.6857 63.1218 59.284 63.0151 58.8696C61.7104 53.8004 57.1094 50.0547 51.6332 50.0547C51.1802 50.0547 50.7334 50.0809 50.2937 50.1307C55.1689 50.684 59.1395 54.2198 60.3361 58.8696C60.4429 59.284 60.3596 59.6857 60.0975 60.0239C59.8353 60.3622 59.4669 60.5428 59.039 60.5428H61.7179Z" fill="#41A8FC"/>
<path d="M51.6332 50.0526C54.9151 50.0526 57.5756 47.3921 57.5756 44.1103C57.5756 40.8284 54.9151 38.168 51.6332 38.168C48.3514 38.168 45.6909 40.8284 45.6909 44.1103C45.6909 47.3921 48.3514 50.0526 51.6332 50.0526Z" fill="#F6DCCD"/>
<path fill-rule="evenodd" clip-rule="evenodd" d="M51.6333 38.168C54.9151 38.168 57.5755 40.8285 57.5755 44.1103C57.5755 47.3921 54.9151 50.0525 51.6333 50.0525C51.3506 50.0525 51.0725 50.0322 50.8003 49.9941C53.6877 49.5891 55.9096 47.1093 55.9096 44.1103C55.9096 41.1112 53.6877 38.6315 50.8003 38.2264C51.0725 38.1881 51.3506 38.168 51.6333 38.168Z" fill="#F1CBBC"/>
<path fill-rule="evenodd" clip-rule="evenodd" d="M4.282 60.5429L24.4514 60.5428C24.8794 60.5428 25.2478 60.3623 25.51 60.0239C25.7722 59.6857 25.8554 59.284 25.7486 58.8696C24.4441 53.8004 19.8429 50.0547 14.3667 50.0547C8.8904 50.0547 4.28935 53.8004 2.98482 58.8696C2.87808 59.2841 2.96123 59.6857 3.22342 60.0239C3.48575 60.3623 3.85403 60.5429 4.282 60.5429Z" fill="#60B7FF"/>
<path fill-rule="evenodd" clip-rule="evenodd" d="M24.4515 60.5428C24.8796 60.5428 25.2479 60.3622 25.51 60.0239C25.7722 59.6857 25.8554 59.284 25.7487 58.8696C24.4441 53.8004 19.8429 50.0547 14.3667 50.0547C13.9138 50.0547 13.467 50.0809 13.0273 50.1307C17.9025 50.684 21.8731 54.2198 23.0697 58.8696C23.1765 59.284 23.0932 59.6857 22.8311 60.0239C22.5689 60.3622 22.2005 60.5428 21.7725 60.5428H24.4515Z" fill="#41A8FC"/>
<path d="M20.2255 45.056C20.7506 41.8168 18.5504 38.7653 15.3112 38.2402C12.072 37.7151 9.02042 39.9153 8.49533 43.1545C7.97023 46.3936 10.1704 49.4452 13.4096 49.9703C16.6488 50.4954 19.7004 48.2952 20.2255 45.056Z" fill="#F6DCCD"/>
<path fill-rule="evenodd" clip-rule="evenodd" d="M14.3669 38.168C17.6487 38.168 20.3091 40.8285 20.3091 44.1103C20.3091 47.3921 17.6486 50.0525 14.3669 50.0525C14.0842 50.0525 13.8061 50.0322 13.5339 49.9941C16.4212 49.5891 18.6432 47.1093 18.6432 44.1103C18.6432 41.1112 16.4212 38.6315 13.5339 38.2264C13.8061 38.1881 14.084 38.168 14.3669 38.168Z" fill="#F1CBBC"/>
<path fill-rule="evenodd" clip-rule="evenodd" d="M22.9152 64.4413L43.0847 64.4412C43.5127 64.4412 43.8811 64.2607 44.1433 63.9223C44.4055 63.5841 44.4886 63.1824 44.3819 62.768C43.0773 57.6989 38.4762 53.9531 33 53.9531C27.5236 53.9531 22.9226 57.6989 21.6181 62.768C21.5113 63.1826 21.5945 63.5841 21.8567 63.9223C22.119 64.2607 22.4873 64.4413 22.9152 64.4413Z" fill="#60B7FF"/>
<path fill-rule="evenodd" clip-rule="evenodd" d="M43.0847 64.4412C43.5127 64.4412 43.8811 64.2606 44.1433 63.9223C44.4055 63.5841 44.4886 63.1824 44.3819 62.768C43.0774 57.6989 38.4762 53.9531 33 53.9531C32.547 53.9531 32.1002 53.9793 31.6605 54.0292C36.5358 54.5824 40.5063 58.1182 41.7031 62.768C41.8098 63.1824 41.7266 63.5841 41.4645 63.9223C41.2023 64.2606 40.8339 64.4412 40.4059 64.4412H43.0847Z" fill="#41A8FC"/>
<path d="M33.0001 53.951C36.282 53.951 38.9424 51.2906 38.9424 48.0087C38.9424 44.7269 36.282 42.0664 33.0001 42.0664C29.7183 42.0664 27.0578 44.7269 27.0578 48.0087C27.0578 51.2906 29.7183 53.951 33.0001 53.951Z" fill="#F6DCCD"/>
<path fill-rule="evenodd" clip-rule="evenodd" d="M33.0001 42.0664C36.2819 42.0664 38.9423 44.7269 38.9423 48.0087C38.9423 51.2905 36.2819 53.9509 33.0001 53.9509C32.7174 53.9509 32.4394 53.9307 32.1671 53.8925C35.0545 53.4874 37.2764 51.0077 37.2764 48.0087C37.2764 45.0096 35.0545 42.53 32.1671 42.1248C32.4394 42.0865 32.7173 42.0664 33.0001 42.0664Z" fill="#F1CBBC"/>
</svg>
