<svg width="18" height="18" viewBox="0 0 18 18" fill="none" xmlns="http://www.w3.org/2000/svg">
<path d="M10.9451 13.1733C10.6568 12.5792 10.2842 12.1468 9.64082 12.4105L8.37168 12.8815C7.35566 13.3526 6.84941 12.8815 6.34316 12.1749L4.06152 6.97881C3.77675 6.38467 3.92441 5.82569 4.56777 5.56201L6.34316 4.85537C6.98652 4.5917 6.88457 4.03272 6.59629 3.43858L5.07402 0.604983C4.78574 0.0108424 4.19511 -0.133298 3.55175 0.130374C2.26504 0.664749 1.1998 1.49444 0.510739 2.72842C-0.333011 4.23662 0.0888642 6.33194 0.257614 7.21436C0.426364 8.09678 1.01699 9.64014 1.77988 11.2292C2.54277 12.8183 3.21074 14.0663 3.8084 14.773C4.40605 15.4796 5.83691 17.4132 7.6123 17.8421C9.06777 18.1937 10.6357 17.8983 11.9225 17.3675C12.5658 17.1038 12.5693 16.5448 12.2811 15.9472L10.9451 13.1733ZM14.5381 4.15225H12.4603L15.2307 6.92256H9.00097V8.30772H15.2307L12.4639 11.0745H14.5416L18.0045 7.61162L14.5381 4.15225Z" fill="#18C4B8"/>
</svg>
