<svg width="24" height="24" viewBox="0 0 24 24" fill="none" xmlns="http://www.w3.org/2000/svg">
<path fill-rule="evenodd" clip-rule="evenodd" d="M14.0073 19.003L14.0133 17C14.0133 16.7341 14.1189 16.4791 14.3069 16.2911C14.4949 16.1031 14.7499 15.9975 15.0158 15.9975C15.2817 15.9975 15.5366 16.1031 15.7247 16.2911C15.9127 16.4791 16.0183 16.7341 16.0183 17V18.977C16.0183 19.458 16.0183 19.699 16.1723 19.847C16.3273 19.994 16.5623 19.984 17.0353 19.964C18.8983 19.885 20.0433 19.634 20.8493 18.828C21.6593 18.022 21.9103 16.877 21.9893 15.011C22.0043 14.641 22.0123 14.455 21.9433 14.332C21.8733 14.209 21.5983 14.055 21.0463 13.746C20.7353 13.5727 20.4763 13.3194 20.296 13.0125C20.1157 12.7055 20.0207 12.356 20.0207 12C20.0207 11.644 20.1157 11.2945 20.296 10.9875C20.4763 10.6806 20.7353 10.4273 21.0463 10.254C21.5983 9.946 21.8743 9.791 21.9433 9.668C22.0123 9.545 22.0043 9.36 21.9883 8.989C21.9103 7.123 21.6583 5.979 20.8493 5.172C19.9723 4.296 18.6943 4.075 16.5273 4.019C16.4609 4.01726 16.3949 4.02884 16.3331 4.05303C16.2713 4.07723 16.2149 4.11357 16.1674 4.15989C16.1199 4.20622 16.0821 4.26159 16.0563 4.32275C16.0305 4.38392 16.0173 4.44962 16.0173 4.516V7C16.0173 7.26588 15.9117 7.52087 15.7237 7.70887C15.5356 7.89688 15.2807 8.0025 15.0148 8.0025C14.7489 8.0025 14.4939 7.89688 14.3059 7.70887C14.1179 7.52087 14.0123 7.26588 14.0123 7L14.0053 4.499C14.005 4.36657 13.9522 4.23964 13.8585 4.14609C13.7647 4.05254 13.6377 4 13.5053 4H9.99328C6.21328 4 4.32328 4 3.14828 5.172C2.33828 5.978 2.08728 7.123 2.00828 8.989C1.99328 9.359 1.98528 9.545 2.05428 9.668C2.12428 9.791 2.39928 9.946 2.95128 10.254C3.26221 10.4273 3.52121 10.6806 3.70152 10.9875C3.88182 11.2945 3.97689 11.644 3.97689 12C3.97689 12.356 3.88182 12.7055 3.70152 13.0125C3.52121 13.3194 3.26221 13.5727 2.95128 13.746C2.39928 14.055 2.12328 14.209 2.05428 14.332C1.98528 14.455 1.99328 14.64 2.00928 15.01C2.08728 16.877 2.33928 18.022 3.14828 18.828C4.32328 20 6.21328 20 9.99428 20H13.0043C13.4763 20 13.7113 20 13.8583 19.854C14.0053 19.708 14.0063 19.474 14.0073 19.003ZM16.0173 13V11C16.0173 10.7341 15.9117 10.4791 15.7237 10.2911C15.5356 10.1031 15.2807 9.9975 15.0148 9.9975C14.7489 9.9975 14.4939 10.1031 14.3059 10.2911C14.1179 10.4791 14.0123 10.7341 14.0123 11V13C14.0123 13.266 14.118 13.5211 14.306 13.7092C14.4941 13.8973 14.7493 14.003 15.0153 14.003C15.2813 14.003 15.5364 13.8973 15.7245 13.7092C15.9126 13.5211 16.0173 13.266 16.0173 13Z" fill="#E713FB"/>
</svg>
