<svg width="24" height="24" viewBox="0 0 24 24" fill="none" xmlns="http://www.w3.org/2000/svg">
<g filter="url(#filter0_ii_99_4901)">
<path d="M19.7746 1.17188H4.26836C2.77719 1.17188 1.56836 2.38071 1.56836 3.87188V19.3781C1.56836 20.8693 2.77719 22.0781 4.26836 22.0781H19.7746C21.2658 22.0781 22.4746 20.8693 22.4746 19.3781V3.87188C22.4746 2.38071 21.2658 1.17188 19.7746 1.17188Z" fill="url(#paint0_linear_99_4901)"/>
<path d="M19.7746 1.17188H4.26836C2.77719 1.17188 1.56836 2.38071 1.56836 3.87188V19.3781C1.56836 20.8693 2.77719 22.0781 4.26836 22.0781H19.7746C21.2658 22.0781 22.4746 20.8693 22.4746 19.3781V3.87188C22.4746 2.38071 21.2658 1.17188 19.7746 1.17188Z" fill="url(#paint1_radial_99_4901)"/>
</g>
<g filter="url(#filter1_f_99_4901)">
<path d="M21.209 3.04688V20.2031" stroke="url(#paint2_linear_99_4901)" stroke-width="0.75" stroke-linecap="round"/>
</g>
<g filter="url(#filter2_f_99_4901)">
<path d="M4.16602 2.53125H20.5018" stroke="url(#paint3_linear_99_4901)" stroke-width="0.75" stroke-linecap="round"/>
</g>
<g filter="url(#filter3_f_99_4901)">
<path d="M9.32594 10.2658C9.32594 9.55092 9.60993 8.86531 10.1154 8.35981C10.6209 7.8543 11.3066 7.57031 12.0214 7.57031C12.7363 7.57031 13.4219 7.8543 13.9274 8.35981C14.433 8.86531 14.7169 9.55092 14.7169 10.2658V12.9838C14.7169 13.3378 14.6472 13.6883 14.5118 14.0153C14.3763 14.3424 14.1777 14.6395 13.9274 14.8898C13.6771 15.1401 13.38 15.3387 13.053 15.4741C12.7259 15.6096 12.3754 15.6793 12.0214 15.6793C11.6675 15.6793 11.317 15.6096 10.9899 15.4741C10.6629 15.3387 10.3657 15.1401 10.1154 14.8898C9.86514 14.6395 9.66659 14.3424 9.53113 14.0153C9.39566 13.6883 9.32594 13.3378 9.32594 12.9838V10.2658ZM12.0214 9.07031C11.3614 9.07031 10.8259 9.60506 10.8259 10.2658V12.9838C10.8259 13.3009 10.9519 13.605 11.1761 13.8292C11.4003 14.0534 11.7044 14.1793 12.0214 14.1793C12.3385 14.1793 12.6426 14.0534 12.8668 13.8292C13.091 13.605 13.2169 13.3009 13.2169 12.9838V10.2651C13.2169 9.60506 12.6814 9.07031 12.0214 9.07031ZM3.57269 9.87131C3.61094 8.70206 4.70744 7.67006 6.03269 7.67006C6.58919 7.67006 7.10294 7.86881 7.48844 8.07431C7.87994 8.28281 8.20544 8.53406 8.40044 8.71931C8.5411 8.85694 8.62202 9.04434 8.62577 9.24109C8.62952 9.43784 8.55579 9.62818 8.42048 9.77107C8.28517 9.91395 8.09912 9.99794 7.90246 10.0049C7.7058 10.0119 7.51427 9.94127 7.36919 9.80831C7.19076 9.64865 6.99386 9.51092 6.78269 9.39806C6.50894 9.25181 6.24569 9.17006 6.03269 9.17006C5.43644 9.17006 5.08094 9.63806 5.07194 9.92081C5.06594 10.0956 5.12294 10.2433 5.32394 10.4106C5.55419 10.6018 5.94794 10.7908 6.53894 10.9551C7.37594 11.1876 8.03519 11.6331 8.37644 12.2803C8.72669 12.9433 8.67044 13.6821 8.33894 14.3203C8.1658 14.6553 7.91329 14.9428 7.60345 15.1577C7.29361 15.3727 6.93586 15.5085 6.56144 15.5533C5.71619 15.6598 4.76594 15.3441 3.76769 14.5663C3.68998 14.5058 3.62496 14.4306 3.57632 14.3449C3.52769 14.2592 3.4964 14.1649 3.48425 14.0671C3.45971 13.8697 3.51459 13.6706 3.63682 13.5137C3.75905 13.3567 3.93862 13.2548 4.13603 13.2302C4.33343 13.2057 4.5325 13.2606 4.68944 13.3828C5.49494 14.0106 6.05444 14.1058 6.37469 14.0653C6.68519 14.0263 6.89519 13.8463 7.00844 13.6288C7.15094 13.3528 7.13444 13.1391 7.05044 12.9801C6.95819 12.8061 6.71294 12.5601 6.13694 12.4003C5.46194 12.2128 4.83269 11.9533 4.36469 11.5633C3.86744 11.1493 3.54869 10.5816 3.57269 9.87131ZM17.9629 7.67006C16.6377 7.67006 15.5404 8.70206 15.5029 9.87131C15.4789 10.5816 15.7969 11.1493 16.2942 11.5633C16.7629 11.9533 17.3922 12.2128 18.0664 12.4003C18.6424 12.5601 18.8884 12.8061 18.9799 12.9801C19.0639 13.1391 19.0812 13.3528 18.9379 13.6288C18.8254 13.8463 18.6154 14.0263 18.3042 14.0653C17.9847 14.1058 17.4252 14.0106 16.6189 13.3828C16.462 13.2606 16.2629 13.2057 16.0655 13.2302C15.8681 13.2548 15.6885 13.3567 15.5663 13.5137C15.4441 13.6706 15.3892 13.8697 15.4137 14.0671C15.4383 14.2645 15.5403 14.4441 15.6972 14.5663C16.6962 15.3441 17.6457 15.6598 18.4909 15.5533C18.8654 15.5085 19.2231 15.3727 19.5329 15.1577C19.8428 14.9428 20.0953 14.6553 20.2684 14.3203C20.6007 13.6821 20.6562 12.9433 20.3067 12.2803C19.9654 11.6331 19.3054 11.1876 18.4684 10.9551C17.8774 10.7901 17.4844 10.6026 17.2534 10.4106C17.0524 10.2426 16.9954 10.0956 17.0014 9.92081C17.0112 9.63806 17.3659 9.17006 17.9629 9.17006C18.1759 9.17006 18.4392 9.25256 18.7129 9.39806C18.9807 9.54056 19.1967 9.71156 19.2979 9.80831C19.3694 9.87607 19.4536 9.92909 19.5456 9.96433C19.6376 9.99957 19.7356 10.0163 19.8341 10.0137C19.9326 10.0111 20.0296 9.98904 20.1195 9.94891C20.2095 9.90878 20.2907 9.85132 20.3584 9.77981C20.4262 9.70831 20.4792 9.62416 20.5145 9.53216C20.5497 9.44017 20.5665 9.34214 20.5638 9.24366C20.5612 9.14518 20.5392 9.04819 20.499 8.95822C20.4589 8.86826 20.4014 8.78708 20.3299 8.71931C20.0541 8.46732 19.748 8.25065 19.4187 8.07431C19.0332 7.86881 18.5187 7.66931 17.9629 7.66931" fill="#EF2B54"/>
</g>
<g filter="url(#filter4_ii_99_4901)">
<path d="M9.32594 10.2658C9.32594 9.55092 9.60993 8.86531 10.1154 8.35981C10.6209 7.8543 11.3066 7.57031 12.0214 7.57031C12.7363 7.57031 13.4219 7.8543 13.9274 8.35981C14.433 8.86531 14.7169 9.55092 14.7169 10.2658V12.9838C14.7169 13.3378 14.6472 13.6883 14.5118 14.0153C14.3763 14.3424 14.1777 14.6395 13.9274 14.8898C13.6771 15.1401 13.38 15.3387 13.053 15.4741C12.7259 15.6096 12.3754 15.6793 12.0214 15.6793C11.6675 15.6793 11.317 15.6096 10.9899 15.4741C10.6629 15.3387 10.3657 15.1401 10.1154 14.8898C9.86514 14.6395 9.66659 14.3424 9.53113 14.0153C9.39566 13.6883 9.32594 13.3378 9.32594 12.9838V10.2658ZM12.0214 9.07031C11.3614 9.07031 10.8259 9.60506 10.8259 10.2658V12.9838C10.8259 13.3009 10.9519 13.605 11.1761 13.8292C11.4003 14.0534 11.7044 14.1793 12.0214 14.1793C12.3385 14.1793 12.6426 14.0534 12.8668 13.8292C13.091 13.605 13.2169 13.3009 13.2169 12.9838V10.2651C13.2169 9.60506 12.6814 9.07031 12.0214 9.07031ZM3.57269 9.87131C3.61094 8.70206 4.70744 7.67006 6.03269 7.67006C6.58919 7.67006 7.10294 7.86881 7.48844 8.07431C7.87994 8.28281 8.20544 8.53406 8.40044 8.71931C8.5411 8.85694 8.62202 9.04434 8.62577 9.24109C8.62952 9.43784 8.55579 9.62818 8.42048 9.77107C8.28517 9.91395 8.09912 9.99794 7.90246 10.0049C7.7058 10.0119 7.51427 9.94127 7.36919 9.80831C7.19076 9.64865 6.99386 9.51092 6.78269 9.39806C6.50894 9.25181 6.24569 9.17006 6.03269 9.17006C5.43644 9.17006 5.08094 9.63806 5.07194 9.92081C5.06594 10.0956 5.12294 10.2433 5.32394 10.4106C5.55419 10.6018 5.94794 10.7908 6.53894 10.9551C7.37594 11.1876 8.03519 11.6331 8.37644 12.2803C8.72669 12.9433 8.67044 13.6821 8.33894 14.3203C8.1658 14.6553 7.91329 14.9428 7.60345 15.1577C7.29361 15.3727 6.93586 15.5085 6.56144 15.5533C5.71619 15.6598 4.76594 15.3441 3.76769 14.5663C3.68998 14.5058 3.62496 14.4306 3.57632 14.3449C3.52769 14.2592 3.4964 14.1649 3.48425 14.0671C3.45971 13.8697 3.51459 13.6706 3.63682 13.5137C3.75905 13.3567 3.93862 13.2548 4.13603 13.2302C4.33343 13.2057 4.5325 13.2606 4.68944 13.3828C5.49494 14.0106 6.05444 14.1058 6.37469 14.0653C6.68519 14.0263 6.89519 13.8463 7.00844 13.6288C7.15094 13.3528 7.13444 13.1391 7.05044 12.9801C6.95819 12.8061 6.71294 12.5601 6.13694 12.4003C5.46194 12.2128 4.83269 11.9533 4.36469 11.5633C3.86744 11.1493 3.54869 10.5816 3.57269 9.87131ZM17.9629 7.67006C16.6377 7.67006 15.5404 8.70206 15.5029 9.87131C15.4789 10.5816 15.7969 11.1493 16.2942 11.5633C16.7629 11.9533 17.3922 12.2128 18.0664 12.4003C18.6424 12.5601 18.8884 12.8061 18.9799 12.9801C19.0639 13.1391 19.0812 13.3528 18.9379 13.6288C18.8254 13.8463 18.6154 14.0263 18.3042 14.0653C17.9847 14.1058 17.4252 14.0106 16.6189 13.3828C16.462 13.2606 16.2629 13.2057 16.0655 13.2302C15.8681 13.2548 15.6885 13.3567 15.5663 13.5137C15.4441 13.6706 15.3892 13.8697 15.4137 14.0671C15.4383 14.2645 15.5403 14.4441 15.6972 14.5663C16.6962 15.3441 17.6457 15.6598 18.4909 15.5533C18.8654 15.5085 19.2231 15.3727 19.5329 15.1577C19.8428 14.9428 20.0953 14.6553 20.2684 14.3203C20.6007 13.6821 20.6562 12.9433 20.3067 12.2803C19.9654 11.6331 19.3054 11.1876 18.4684 10.9551C17.8774 10.7901 17.4844 10.6026 17.2534 10.4106C17.0524 10.2426 16.9954 10.0956 17.0014 9.92081C17.0112 9.63806 17.3659 9.17006 17.9629 9.17006C18.1759 9.17006 18.4392 9.25256 18.7129 9.39806C18.9807 9.54056 19.1967 9.71156 19.2979 9.80831C19.3694 9.87607 19.4536 9.92909 19.5456 9.96433C19.6376 9.99957 19.7356 10.0163 19.8341 10.0137C19.9326 10.0111 20.0296 9.98904 20.1195 9.94891C20.2095 9.90878 20.2907 9.85132 20.3584 9.77981C20.4262 9.70831 20.4792 9.62416 20.5145 9.53216C20.5497 9.44017 20.5665 9.34214 20.5638 9.24366C20.5612 9.14518 20.5392 9.04819 20.499 8.95822C20.4589 8.86826 20.4014 8.78708 20.3299 8.71931C20.0541 8.46732 19.748 8.25065 19.4187 8.07431C19.0332 7.86881 18.5187 7.66931 17.9629 7.66931" fill="#FCF2FF"/>
</g>
<defs>
<filter id="filter0_ii_99_4901" x="1.56836" y="0.671875" width="21.4062" height="21.4062" filterUnits="userSpaceOnUse" color-interpolation-filters="sRGB">
<feFlood flood-opacity="0" result="BackgroundImageFix"/>
<feBlend mode="normal" in="SourceGraphic" in2="BackgroundImageFix" result="shape"/>
<feColorMatrix in="SourceAlpha" type="matrix" values="0 0 0 0 0 0 0 0 0 0 0 0 0 0 0 0 0 0 127 0" result="hardAlpha"/>
<feOffset dx="0.5" dy="-0.5"/>
<feGaussianBlur stdDeviation="0.75"/>
<feComposite in2="hardAlpha" operator="arithmetic" k2="-1" k3="1"/>
<feColorMatrix type="matrix" values="0 0 0 0 0.901961 0 0 0 0 0.133333 0 0 0 0 0.337255 0 0 0 1 0"/>
<feBlend mode="normal" in2="shape" result="effect1_innerShadow_99_4901"/>
<feColorMatrix in="SourceAlpha" type="matrix" values="0 0 0 0 0 0 0 0 0 0 0 0 0 0 0 0 0 0 127 0" result="hardAlpha"/>
<feOffset dy="-0.5"/>
<feGaussianBlur stdDeviation="0.75"/>
<feComposite in2="hardAlpha" operator="arithmetic" k2="-1" k3="1"/>
<feColorMatrix type="matrix" values="0 0 0 0 0.85098 0 0 0 0 0.168627 0 0 0 0 0.231373 0 0 0 1 0"/>
<feBlend mode="normal" in2="effect1_innerShadow_99_4901" result="effect2_innerShadow_99_4901"/>
</filter>
<filter id="filter1_f_99_4901" x="19.834" y="1.67188" width="2.75" height="19.9062" filterUnits="userSpaceOnUse" color-interpolation-filters="sRGB">
<feFlood flood-opacity="0" result="BackgroundImageFix"/>
<feBlend mode="normal" in="SourceGraphic" in2="BackgroundImageFix" result="shape"/>
<feGaussianBlur stdDeviation="0.5" result="effect1_foregroundBlur_99_4901"/>
</filter>
<filter id="filter2_f_99_4901" x="2.79102" y="1.15625" width="19.0859" height="2.75" filterUnits="userSpaceOnUse" color-interpolation-filters="sRGB">
<feFlood flood-opacity="0" result="BackgroundImageFix"/>
<feBlend mode="normal" in="SourceGraphic" in2="BackgroundImageFix" result="shape"/>
<feGaussianBlur stdDeviation="0.5" result="effect1_foregroundBlur_99_4901"/>
</filter>
<filter id="filter3_f_99_4901" x="2.97852" y="7.07031" width="18.0859" height="9.10938" filterUnits="userSpaceOnUse" color-interpolation-filters="sRGB">
<feFlood flood-opacity="0" result="BackgroundImageFix"/>
<feBlend mode="normal" in="SourceGraphic" in2="BackgroundImageFix" result="shape"/>
<feGaussianBlur stdDeviation="0.25" result="effect1_foregroundBlur_99_4901"/>
</filter>
<filter id="filter4_ii_99_4901" x="3.27852" y="7.37031" width="17.4859" height="8.50938" filterUnits="userSpaceOnUse" color-interpolation-filters="sRGB">
<feFlood flood-opacity="0" result="BackgroundImageFix"/>
<feBlend mode="normal" in="SourceGraphic" in2="BackgroundImageFix" result="shape"/>
<feColorMatrix in="SourceAlpha" type="matrix" values="0 0 0 0 0 0 0 0 0 0 0 0 0 0 0 0 0 0 127 0" result="hardAlpha"/>
<feOffset dx="-0.2" dy="0.2"/>
<feGaussianBlur stdDeviation="0.1875"/>
<feComposite in2="hardAlpha" operator="arithmetic" k2="-1" k3="1"/>
<feColorMatrix type="matrix" values="0 0 0 0 0.913725 0 0 0 0 0.886275 0 0 0 0 0.968627 0 0 0 1 0"/>
<feBlend mode="normal" in2="shape" result="effect1_innerShadow_99_4901"/>
<feColorMatrix in="SourceAlpha" type="matrix" values="0 0 0 0 0 0 0 0 0 0 0 0 0 0 0 0 0 0 127 0" result="hardAlpha"/>
<feOffset dx="0.2" dy="-0.2"/>
<feGaussianBlur stdDeviation="0.1"/>
<feComposite in2="hardAlpha" operator="arithmetic" k2="-1" k3="1"/>
<feColorMatrix type="matrix" values="0 0 0 0 1 0 0 0 0 0.988235 0 0 0 0 1 0 0 0 1 0"/>
<feBlend mode="normal" in2="effect1_innerShadow_99_4901" result="effect2_innerShadow_99_4901"/>
</filter>
<linearGradient id="paint0_linear_99_4901" x1="12.0219" y1="3.85237" x2="12.0219" y2="28.7921" gradientUnits="userSpaceOnUse">
<stop stop-color="#FF4D91"/>
<stop offset="1" stop-color="#F34A5F"/>
</linearGradient>
<radialGradient id="paint1_radial_99_4901" cx="0" cy="0" r="1" gradientUnits="userSpaceOnUse" gradientTransform="translate(20.8111 2.74163) rotate(136.771) scale(1.60833 1.87849)">
<stop stop-color="#FF77B1"/>
<stop offset="1" stop-color="#FF77B1" stop-opacity="0"/>
</radialGradient>
<linearGradient id="paint2_linear_99_4901" x1="-nan" y1="-nan" x2="-nan" y2="-nan" gradientUnits="userSpaceOnUse">
<stop stop-color="#FF66A5"/>
<stop offset="1" stop-color="#FF5B6B"/>
</linearGradient>
<linearGradient id="paint3_linear_99_4901" x1="-nan" y1="-nan" x2="-nan" y2="-nan" gradientUnits="userSpaceOnUse">
<stop stop-color="#FF60A3"/>
<stop offset="1" stop-color="#FF5495"/>
</linearGradient>
</defs>
</svg>
