<svg width="65" height="64" viewBox="0 0 65 64" fill="none" xmlns="http://www.w3.org/2000/svg">
<path d="M56.965 25.705C56.0225 24.72 55.0475 23.705 54.68 22.8125C54.34 21.995 54.32 20.64 54.3 19.3275C54.2625 16.8875 54.2225 14.1225 52.3 12.2C50.3775 10.2775 47.6125 10.2375 45.1725 10.2C43.86 10.18 42.505 10.16 41.6875 9.82C40.7975 9.4525 39.78 8.4775 38.795 7.535C37.07 5.8775 35.11 4 32.5 4C29.89 4 27.9325 5.8775 26.205 7.535C25.22 8.4775 24.205 9.4525 23.3125 9.82C22.5 10.16 21.14 10.18 19.8275 10.2C17.3875 10.2375 14.6225 10.2775 12.7 12.2C10.7775 14.1225 10.75 16.8875 10.7 19.3275C10.68 20.64 10.66 21.995 10.32 22.8125C9.9525 23.7025 8.9775 24.72 8.035 25.705C6.3775 27.43 4.5 29.39 4.5 32C4.5 34.61 6.3775 36.5675 8.035 38.295C8.9775 39.28 9.9525 40.295 10.32 41.1875C10.66 42.005 10.68 43.36 10.7 44.6725C10.7375 47.1125 10.7775 49.8775 12.7 51.8C14.6225 53.7225 17.3875 53.7625 19.8275 53.8C21.14 53.82 22.495 53.84 23.3125 54.18C24.2025 54.5475 25.22 55.5225 26.205 56.465C27.93 58.1225 29.89 60 32.5 60C35.11 60 37.0675 58.1225 38.795 56.465C39.78 55.5225 40.795 54.5475 41.6875 54.18C42.505 53.84 43.86 53.82 45.1725 53.8C47.6125 53.7625 50.3775 53.7225 52.3 51.8C54.2225 49.8775 54.2625 47.1125 54.3 44.6725C54.32 43.36 54.34 42.005 54.68 41.1875C55.0475 40.2975 56.0225 39.28 56.965 38.295C58.6225 36.57 60.5 34.61 60.5 32C60.5 29.39 58.6225 27.4325 56.965 25.705ZM43.915 27.415L29.915 41.415C29.7293 41.601 29.5087 41.7485 29.2659 41.8491C29.0231 41.9498 28.7628 42.0016 28.5 42.0016C28.2372 42.0016 27.9769 41.9498 27.7341 41.8491C27.4913 41.7485 27.2707 41.601 27.085 41.415L21.085 35.415C20.8992 35.2292 20.7518 35.0086 20.6512 34.7658C20.5506 34.523 20.4989 34.2628 20.4989 34C20.4989 33.7372 20.5506 33.477 20.6512 33.2342C20.7518 32.9914 20.8992 32.7708 21.085 32.585C21.4603 32.2097 21.9693 31.9989 22.5 31.9989C22.7628 31.9989 23.023 32.0506 23.2658 32.1512C23.5086 32.2518 23.7292 32.3992 23.915 32.585L28.5 37.1725L41.085 24.585C41.2708 24.3992 41.4914 24.2518 41.7342 24.1512C41.977 24.0506 42.2372 23.9989 42.5 23.9989C42.7628 23.9989 43.023 24.0506 43.2658 24.1512C43.5086 24.2518 43.7292 24.3992 43.915 24.585C44.1008 24.7708 44.2482 24.9914 44.3488 25.2342C44.4494 25.477 44.5011 25.7372 44.5011 26C44.5011 26.2628 44.4494 26.523 44.3488 26.7658C44.2482 27.0086 44.1008 27.2292 43.915 27.415Z" fill="#18C4B8"/>
</svg>
