<svg width="18" height="20" viewBox="0 0 18 20" fill="none" xmlns="http://www.w3.org/2000/svg">
<path d="M11.855 14.2698C11.5428 13.6263 11.1392 13.158 10.4424 13.4436L9.068 13.9538C7.96768 14.4639 7.41943 13.9538 6.86736 13.1847L4.3926 7.55745C4.08421 6.91401 4.24411 6.30864 4.94085 6.0231L6.86356 5.25401C7.5603 4.96466 7.44989 4.3631 7.13768 3.71966L5.49672 0.650951C5.18452 0.00751177 4.54489 -0.148589 3.84815 0.136961C2.45086 0.711868 1.29724 1.61421 0.551002 2.95058C-0.362757 4.58392 0.0941224 6.8569 0.276874 7.81254C0.459626 8.76818 1.09926 10.4434 1.92545 12.1605C2.75164 13.8814 3.47884 15.233 4.12609 15.9983C4.77333 16.7636 6.32672 18.8576 8.24942 19.3259C9.82566 19.7066 11.5275 19.3868 12.921 18.8119C13.6178 18.5264 13.6216 17.921 13.3094 17.2738L11.855 14.2698ZM18 5.24259L16.4999 3.7425L14.2498 5.99264L11.9996 3.7425L10.4996 5.24259L12.7497 7.49272L10.4996 9.74667L11.9996 11.2468L14.2498 8.99662L16.4999 11.2468L18 9.74667L15.7499 7.49653L18 5.24259Z" fill="#F53333"/>
</svg>
